<svg width="800" height="600" viewBox="0 0 800 600" fill="none" xmlns="http://www.w3.org/2000/svg">
  <rect width="800" height="600" fill="#12372A"/>
  
  <!-- Phone Frame -->
  <rect x="300" y="50" width="200" height="400" rx="20" fill="#05100C" stroke="#436850" stroke-width="4"/>
  
  <!-- Notch -->
  <path d="M370 50 H430 V60 Q430 70 420 70 H380 Q370 70 370 60 V50 Z" fill="#12372A"/>
  
  <!-- App Header -->
  <rect x="320" y="90" width="160" height="40" rx="5" fill="#1E4435"/>
  <circle cx="340" cy="110" r="10" fill="#9DCF6F"/>
  <rect x="360" y="105" width="80" height="10" rx="2" fill="#FBFADA" fill-opacity="0.5"/>
  
  <!-- App Content -->
  <rect x="320" y="150" width="160" height="80" rx="5" fill="#1E4435" fill-opacity="0.5"/>
  <rect x="320" y="240" width="70" height="70" rx="5" fill="#9DCF6F" fill-opacity="0.2"/>
  <rect x="410" y="240" width="70" height="70" rx="5" fill="#FBFADA" fill-opacity="0.1"/>
  
  <rect x="320" y="330" width="160" height="40" rx="5" fill="#1E4435" fill-opacity="0.5"/>
  <rect x="320" y="380" width="160" height="40" rx="5" fill="#1E4435" fill-opacity="0.5"/>
  
  <!-- Floating Elements -->
  <circle cx="250" cy="200" r="30" fill="#9DCF6F" fill-opacity="0.1"/>
  <circle cx="550" cy="400" r="50" fill="#436850" fill-opacity="0.2"/>
  
  <!-- Code/Tech Elements around -->
  <rect x="550" y="150" width="100" height="60" rx="5" fill="#05100C" fill-opacity="0.3"/>
  <rect x="560" y="165" width="60" height="5" rx="1" fill="#9DCF6F"/>
  <rect x="560" y="175" width="40" height="5" rx="1" fill="#436850"/>
</svg>
