<svg width="800" height="600" viewBox="0 0 800 600" fill="none" xmlns="http://www.w3.org/2000/svg">
  <rect width="800" height="600" fill="#12372A"/>
  
  <!-- Server Rack 1 -->
  <rect x="150" y="100" width="200" height="400" rx="10" fill="#05100C" fill-opacity="0.5" stroke="#436850" stroke-width="2"/>
  <rect x="170" y="130" width="160" height="30" rx="2" fill="#1E4435"/>
  <circle cx="185" cy="145" r="4" fill="#9DCF6F"/>
  <circle cx="200" cy="145" r="4" fill="#9DCF6F" fill-opacity="0.5"/>
  
  <rect x="170" y="180" width="160" height="30" rx="2" fill="#1E4435"/>
  <circle cx="185" cy="195" r="4" fill="#9DCF6F"/>
  
  <rect x="170" y="230" width="160" height="30" rx="2" fill="#1E4435"/>
  <circle cx="185" cy="245" r="4" fill="#FF5F56"/>
  
  <rect x="170" y="280" width="160" height="30" rx="2" fill="#1E4435"/>
  <circle cx="185" cy="295" r="4" fill="#9DCF6F"/>
  
  <!-- Server Rack 2 -->
  <rect x="450" y="100" width="200" height="400" rx="10" fill="#05100C" fill-opacity="0.5" stroke="#436850" stroke-width="2"/>
  <rect x="470" y="130" width="160" height="30" rx="2" fill="#1E4435"/>
  <circle cx="485" cy="145" r="4" fill="#9DCF6F"/>
  
  <rect x="470" y="180" width="160" height="30" rx="2" fill="#1E4435"/>
  <circle cx="485" cy="195" r="4" fill="#9DCF6F"/>
  <circle cx="500" cy="195" r="4" fill="#9DCF6F" fill-opacity="0.5"/>
  
  <rect x="470" y="230" width="160" height="30" rx="2" fill="#1E4435"/>
  <circle cx="485" cy="245" r="4" fill="#9DCF6F"/>
  
  <!-- Connection Lines -->
  <path d="M350 145 H450" stroke="#436850" stroke-width="2" stroke-dasharray="5 5"/>
  <path d="M350 245 H450" stroke="#436850" stroke-width="2" stroke-dasharray="5 5"/>
  
  <!-- Glow effect -->
  <circle cx="185" cy="145" r="8" fill="#9DCF6F" fill-opacity="0.2"/>
  <circle cx="485" cy="195" r="8" fill="#9DCF6F" fill-opacity="0.2"/>
</svg>
